HIERARCHY
ROOT joint_Root
{
	OFFSET 0.0 0.0 0.0
	CHANNELS 6 Xposition Yposition Zposition Zrotation Xrotation Yrotation 
	JOINT Hips
	{
		OFFSET -17.1583 93.1646 452.98
		CHANNELS 6 Xposition Yposition Zposition Zrotation Xrotation Yrotation 
		JOINT Spine
		{
			OFFSET 15.7357 0.0 0.0
			CHANNELS 6 Xposition Yposition Zposition Zrotation Xrotation Yrotation 
			JOINT Chest
			{
				OFFSET 8.98455 -0.406207 0.0
				CHANNELS 6 Xposition Yposition Zposition Zrotation Xrotation Yrotation 
				JOINT Neck
				{
					OFFSET 16.3773 0.0 0.0
					CHANNELS 6 Xposition Yposition Zposition Zrotation Xrotation Yrotation 
					JOINT Head
					{
						OFFSET 6.45672 0.0 0.0
						CHANNELS 6 Xposition Yposition Zposition Zrotation Xrotation Yrotation 
						End Site
						{
							OFFSET 0.0 0.0 0.0
						}
					}
				}
				JOINT Shoulder_L
				{
					OFFSET 12.9942 -0.242716 4.98039
					CHANNELS 6 Xposition Yposition Zposition Zrotation Xrotation Yrotation 
					JOINT UpperArm_L
					{
						OFFSET 5.34809 0.0 0.0
						CHANNELS 6 Xposition Yposition Zposition Zrotation Xrotation Yrotation 
						JOINT LowerArm_L
						{
							OFFSET 24.3286 1.87007e-05 0.0
							CHANNELS 6 Xposition Yposition Zposition Zrotation Xrotation Yrotation 
							JOINT Hand_L
							{
								OFFSET 22.2916 0.0 0.0
								CHANNELS 6 Xposition Yposition Zposition Zrotation Xrotation Yrotation 
								End Site
								{
									OFFSET 0.0 0.0 0.0
								}
							}
						}
					}
				}
				JOINT Shoulder_R
				{
					OFFSET 12.9945 -0.242716 -4.98039
					CHANNELS 6 Xposition Yposition Zposition Zrotation Xrotation Yrotation 
					JOINT UpperArm_R
					{
						OFFSET -5.34813 0.0 0.0
						CHANNELS 6 Xposition Yposition Zposition Zrotation Xrotation Yrotation 
						JOINT LowerArm_R
						{
							OFFSET -24.3289 0.000322201 0.0
							CHANNELS 6 Xposition Yposition Zposition Zrotation Xrotation Yrotation 
							JOINT Hand_R
							{
								OFFSET -22.2915 -0.000108084 0.0
								CHANNELS 6 Xposition Yposition Zposition Zrotation Xrotation Yrotation 
								End Site
								{
									OFFSET 0.0 0.0 0.0
								}
							}
						}
					}
				}
			}
		}
		JOINT UpperLeg_L
		{
			OFFSET -2.19248 -6.46944 0.0
			CHANNELS 6 Xposition Yposition Zposition Zrotation Xrotation Yrotation 
			JOINT LowerLeg_L
			{
				OFFSET 39.0811 0.0 -1.23785e-05
				CHANNELS 6 Xposition Yposition Zposition Zrotation Xrotation Yrotation 
				JOINT Foot_L
				{
					OFFSET 40.9854 0.0 -1.26872e-05
					CHANNELS 6 Xposition Yposition Zposition Zrotation Xrotation Yrotation 
					JOINT Toes_L
					{
						OFFSET 11.7543 0.0 0.0
						CHANNELS 6 Xposition Yposition Zposition Zrotation Xrotation Yrotation 
						End Site
						{
							OFFSET 0.0 0.0 0.0
						}
					}
				}
			}
		}
		JOINT UpperLeg_R
		{
			OFFSET -2.19251 6.46944 0.0
			CHANNELS 6 Xposition Yposition Zposition Zrotation Xrotation Yrotation 
			JOINT LowerLeg_R
			{
				OFFSET -39.0811 -0.00228153 -0.0401928
				CHANNELS 6 Xposition Yposition Zposition Zrotation Xrotation Yrotation 
				JOINT Foot_R
				{
					OFFSET -40.9854 0.0 0.0
					CHANNELS 6 Xposition Yposition Zposition Zrotation Xrotation Yrotation 
					JOINT Toes_R
					{
						OFFSET -11.7543 0.0 0.0
						CHANNELS 6 Xposition Yposition Zposition Zrotation Xrotation Yrotation 
						End Site
						{
							OFFSET 0.0 0.0 0.0
						}
					}
				}
			}
		}
	}
}
MOTION
Frames:	8
Frame Time:	0.0333333
0.000000 0.000000 0.000000 0.000000 0.000000 -0.000000 -2.410840 91.647900 -0.033438 85.011400 -0.065323 10.215600 15.735700 0.000005 -0.000001 75.926300 85.355300 -72.977800 8.984550 -0.406207 -0.000000 1.315030 -2.423660 5.920620 16.377300 -0.000001 -0.000001 17.334300 1.872680 9.385140 6.456720 -0.000001 -0.000000 -4.904700 -1.320390 20.229000 12.994200 -0.242716 4.980390 -92.078100 5.636760 -69.724200 5.348090 -0.000007 -0.000001 -81.041900 -23.069900 -11.196500 24.328600 0.000019 0.000005 29.604300 -34.127300 -134.638000 22.291600 -0.000001 0.000005 47.019000 4.987880 7.575910 12.994500 -0.242716 -4.980390 86.531600 8.393430 -67.450800 -5.348130 -0.000001 -0.000004 -72.610100 -8.657130 -13.782800 -24.328900 0.000322 -0.000009 12.264400 -14.565900 -139.160000 -22.291500 -0.000108 -0.000004 55.077100 5.680860 -19.967300 -2.192480 -6.469440 -0.000000 -175.914000 3.625600 2.328740 39.081100 -0.000007 -0.000012 0.433729 -0.781238 29.039400 40.985400 -0.000006 -0.000013 0.434805 -0.764551 -76.410400 11.754300 -0.000000 0.000003 -0.000710 0.178817 -9.323390 -2.192510 6.469440 -0.000001 -172.944000 10.107200 -171.056000 -39.081100 -0.002282 -0.040193 0.167621 -0.504910 18.025000 -40.985400 0.000008 0.000006 5.648280 3.889590 -72.897200 -11.754300 -0.000006 -0.000006 -0.011564 0.282645 -5.086910
0.000000 0.000000 0.000000 0.000000 0.000000 -0.000000 -2.423450 91.662200 -0.067551 85.026200 -0.064688 10.176400 15.735700 0.000005 -0.000001 76.382500 85.352900 -73.468500 8.984550 -0.406207 -0.000000 1.334510 -2.350560 5.851110 16.377300 -0.000001 -0.000001 17.257900 1.840280 9.331880 6.456720 -0.000001 -0.000000 -4.942850 -1.446020 20.099000 12.994200 -0.242716 4.980390 -92.097000 5.687780 -69.723400 5.348090 -0.000007 -0.000001 -81.043600 -23.164800 -11.264000 24.328600 0.000019 0.000005 29.558500 -34.003600 -134.599000 22.291600 -0.000001 0.000005 47.112700 4.987180 7.590680 12.994500 -0.242716 -4.980390 86.540100 8.368340 -67.440600 -5.348130 -0.000001 -0.000004 -72.645900 -8.643570 -13.741000 -24.328900 0.000322 -0.000009 12.290900 -14.512600 -138.995000 -22.291500 -0.000108 -0.000004 54.896000 5.680940 -20.006800 -2.192480 -6.469440 -0.000000 -175.913000 3.564370 2.286760 39.081100 -0.000007 -0.000012 0.436832 -0.788314 28.993600 40.985400 -0.000006 -0.000013 0.426890 -0.762428 -76.440700 11.754300 -0.000000 0.000003 -0.001004 0.183098 -9.149420 -2.192510 6.469440 -0.000001 -172.909000 10.008900 -171.067000 -39.081100 -0.002282 -0.040193 0.167247 -0.506423 17.936300 -40.985400 0.000008 0.000006 5.648050 3.824230 -72.875700 -11.754300 -0.000006 -0.000006 -0.011080 0.279206 -5.227690
0.000000 0.000000 0.000000 0.000000 0.000000 -0.000000 -2.428890 91.661700 -0.083259 85.049900 -0.041392 10.190500 15.735700 0.000005 -0.000001 76.557700 85.333300 -73.691100 8.984550 -0.406207 -0.000000 1.377540 -2.328290 5.756870 16.377300 -0.000001 -0.000001 17.275400 1.800770 9.286580 6.456720 -0.000001 -0.000000 -4.997750 -1.519840 20.007900 12.994200 -0.242716 4.980390 -92.114300 5.703870 -69.622300 5.348090 -0.000007 -0.000001 -81.056100 -23.137500 -11.276600 24.328600 0.000019 0.000005 29.668000 -33.970800 -134.448000 22.291600 -0.000001 0.000005 46.942600 4.994110 7.444250 12.994500 -0.242716 -4.980390 86.533500 8.396960 -67.470500 -5.348130 -0.000001 -0.000004 -72.657900 -8.628610 -13.668800 -24.328900 0.000322 -0.000009 12.341700 -14.498900 -138.848000 -22.291500 -0.000108 -0.000004 54.850200 5.680970 -20.017600 -2.192480 -6.469440 -0.000000 -175.915000 3.550700 2.281250 39.081100 -0.000007 -0.000012 0.431096 -0.778506 28.976600 40.985400 -0.000006 -0.000013 0.439208 -0.700707 -76.295300 11.754300 -0.000000 0.000003 -0.000689 0.178518 -9.335570 -2.192510 6.469440 -0.000001 -172.951000 10.083600 -171.099000 -39.081100 -0.002282 -0.040193 0.167743 -0.506429 17.986900 -40.985400 0.000008 0.000006 5.659470 3.865070 -72.855000 -11.754300 -0.000006 -0.000006 -0.011370 0.281274 -5.143060
0.000000 0.000000 0.000000 0.000000 0.000000 -0.000000 -2.430600 91.676800 -0.090249 85.082800 0.005956 10.203300 15.735700 0.000005 -0.000001 76.807700 85.325300 -73.988300 8.984550 -0.406207 -0.000000 1.400350 -2.289130 5.662490 16.377300 -0.000001 -0.000001 17.312500 1.765460 9.249090 6.456720 -0.000001 -0.000000 -5.038470 -1.647340 19.906400 12.994200 -0.242716 4.980390 -92.129100 5.738870 -69.605200 5.348090 -0.000007 -0.000001 -81.001300 -23.087900 -11.254700 24.328600 0.000019 0.000005 29.939400 -34.035600 -134.181000 22.291600 -0.000001 0.000005 46.883400 4.986900 7.596430 12.994500 -0.242716 -4.980390 86.524900 8.411470 -67.454900 -5.348130 -0.000001 -0.000004 -72.573900 -8.540800 -13.499100 -24.328900 0.000322 -0.000009 12.399500 -14.537300 -138.785000 -22.291500 -0.000108 -0.000004 54.650500 5.680420 -19.759400 -2.192480 -6.469440 -0.000000 -175.944000 3.545320 2.333930 39.081100 -0.000007 -0.000012 0.429416 -0.778210 28.891100 40.985400 -0.000006 -0.000013 0.443888 -0.672715 -76.341300 11.754300 -0.000000 0.000003 -0.000912 0.181773 -9.203290 -2.192510 6.469440 -0.000001 -172.939000 9.977150 -171.046000 -39.081100 -0.002282 -0.040193 0.167609 -0.509095 17.885000 -40.985400 0.000008 0.000006 5.633960 3.712650 -72.822000 -11.754300 -0.000006 -0.000006 -0.011232 0.280291 -5.183280
0.000000 0.000000 0.000000 0.000000 0.000000 -0.000000 -2.428590 91.678900 -0.126727 85.094100 0.121650 10.107900 15.735700 0.000005 -0.000001 76.706400 85.325600 -73.921200 8.984550 -0.406207 -0.000000 1.395520 -2.303310 5.594270 16.377300 -0.000001 -0.000001 17.263000 1.684370 9.210630 6.456720 -0.000001 -0.000000 -5.065910 -1.721900 19.758300 12.994200 -0.242716 4.980390 -92.154700 5.793240 -69.557900 5.348090 -0.000007 -0.000001 -80.947000 -23.107500 -11.235000 24.328600 0.000019 0.000005 29.948000 -33.918200 -134.084000 22.291600 -0.000001 0.000005 46.760300 4.980960 7.721200 12.994500 -0.242716 -4.980390 86.530600 8.386390 -67.427900 -5.348130 -0.000001 -0.000004 -72.612200 -8.446570 -13.427800 -24.328900 0.000322 -0.000009 12.495500 -14.606600 -138.691000 -22.291500 -0.000108 -0.000004 54.461200 5.680060 -19.613700 -2.192480 -6.469440 -0.000000 -175.951000 3.600280 2.174880 39.081100 -0.000007 -0.000012 0.428917 -0.776838 28.905600 40.985400 -0.000006 -0.000013 0.465041 -0.602360 -76.245600 11.754300 -0.000000 0.000003 -0.000849 0.180861 -9.240340 -2.192510 6.469440 -0.000001 -172.938000 10.058300 -171.194000 -39.081100 -0.002282 -0.040193 0.167995 -0.509350 17.916000 -40.985400 0.000008 0.000006 5.624210 3.651090 -72.811300 -11.754300 -0.000006 -0.000006 -0.011568 0.282672 -5.085800
0.000000 0.000000 0.000000 0.000000 0.000000 -0.000000 -2.411080 91.691500 -0.141602 85.117400 0.165740 10.061800 15.735700 0.000005 -0.000001 76.936600 85.308700 -74.188300 8.984550 -0.406207 -0.000000 1.435330 -2.271360 5.520950 16.377300 -0.000001 -0.000001 17.220800 1.644880 9.170470 6.456720 -0.000001 -0.000000 -5.173090 -1.810160 19.649400 12.994200 -0.242716 4.980390 -92.176200 5.841630 -69.526700 5.348090 -0.000007 -0.000001 -80.912800 -23.214100 -11.213400 24.328600 0.000019 0.000005 29.945500 -33.835800 -134.026000 22.291600 -0.000001 0.000005 46.421000 4.981130 7.717830 12.994500 -0.242716 -4.980390 86.522900 8.382320 -67.373200 -5.348130 -0.000001 -0.000004 -72.600000 -8.337870 -13.437500 -24.328900 0.000322 -0.000009 12.656500 -14.721000 -138.532000 -22.291500 -0.000108 -0.000004 54.492800 5.679930 -19.562500 -2.192480 -6.469440 -0.000000 -175.977000 3.578660 2.149190 39.081100 -0.000007 -0.000012 0.429095 -0.779488 28.833200 40.985400 -0.000006 -0.000013 0.496299 -0.546005 -76.199000 11.754300 -0.000000 0.000003 -0.000741 0.179282 -9.304490 -2.192510 6.469440 -0.000001 -172.940000 10.000700 -171.223000 -39.081100 -0.002282 -0.040193 0.167297 -0.509115 17.852500 -40.985400 0.000008 0.000006 5.594120 3.552510 -72.775900 -11.754300 -0.000006 -0.000006 -0.011115 0.279457 -5.217430
0.000000 0.000000 0.000000 0.000000 0.000000 -0.000000 -2.398630 91.700900 -0.159279 85.132000 0.265344 10.029600 15.735700 0.000005 -0.000001 77.072700 85.288300 -74.371200 8.984550 -0.406207 -0.000000 1.478590 -2.255160 5.427870 16.377300 -0.000001 -0.000001 17.195400 1.619980 9.156520 6.456720 -0.000001 -0.000000 -5.283060 -1.884460 19.585200 12.994200 -0.242716 4.980390 -92.174100 5.838750 -69.535700 5.348090 -0.000007 -0.000001 -80.932700 -23.264900 -11.236600 24.328600 0.000019 0.000005 30.019600 -33.799000 -133.913000 22.291600 -0.000001 0.000005 46.289700 4.976200 7.820700 12.994500 -0.242716 -4.980390 86.516400 8.400630 -67.379200 -5.348130 -0.000001 -0.000004 -72.518400 -8.319260 -13.348900 -24.328900 0.000322 -0.000009 12.740100 -14.774100 -138.438000 -22.291500 -0.000108 -0.000004 54.425300 5.679270 -19.332700 -2.192480 -6.469440 -0.000000 -175.979000 3.575160 2.105560 39.081100 -0.000007 -0.000012 0.423998 -0.771831 28.782900 40.985400 -0.000006 -0.000013 0.528644 -0.450129 -76.089800 11.754300 -0.000000 0.000003 -0.000753 0.179461 -9.297220 -2.192510 6.469440 -0.000001 -172.964000 10.032700 -171.259000 -39.081100 -0.002282 -0.040193 0.166147 -0.506632 17.816600 -40.985400 0.000008 0.000006 5.583340 3.553330 -72.745000 -11.754300 -0.000006 -0.000006 -0.011273 0.280584 -5.171310
0.000000 0.000000 0.000000 0.000000 0.000000 -0.000000 -2.378160 91.717900 -0.190600 85.161400 0.332440 9.947480 15.735700 0.000005 -0.000001 77.165500 85.286100 -74.503700 8.984550 -0.406207 -0.000000 1.485040 -2.238960 5.348460 16.377300 -0.000001 -0.000001 17.135300 1.562660 9.140610 6.456720 -0.000001 -0.000000 -5.333600 -1.939860 19.432900 12.994200 -0.242716 4.980390 -92.185800 5.863190 -69.512900 5.348090 -0.000007 -0.000001 -80.834000 -23.312600 -11.183900 24.328600 0.000019 0.000005 30.093700 -33.754400 -133.794000 22.291600 -0.000001 0.000005 46.266000 4.961950 8.117790 12.994500 -0.242716 -4.980390 86.512300 8.397200 -67.347000 -5.348130 -0.000001 -0.000004 -72.501000 -8.249950 -13.331100 -24.328900 0.000322 -0.000009 12.731600 -14.707900 -138.333000 -22.291500 -0.000108 -0.000004 54.389600 5.679140 -19.298700 -2.192480 -6.469440 -0.000000 -176.010000 3.529960 2.031060 39.081100 -0.000007 -0.000012 0.426043 -0.778049 28.705300 40.985400 -0.000006 -0.000013 0.572604 -0.361135 -76.069400 11.754300 -0.000000 0.000003 -0.000804 0.180207 -9.266920 -2.192510 6.469440 -0.000001 -172.983000 10.029900 -171.321000 -39.081100 -0.002282 -0.040193 0.165716 -0.507319 17.749900 -40.985400 0.000008 0.000006 5.543830 3.478060 -72.781300 -11.754300 -0.000006 -0.000006 -0.011536 0.282447 -5.095010
